<!DOCTYPE svg PUBLIC "-//W3C//DTD SVG 1.1//EN" "http://www.w3.org/Graphics/SVG/1.1/DTD/svg11.dtd">
<!-- Uploaded to: SVG Repo, www.svgrepo.com, Transformed by: SVG Repo Mixer Tools -->
<svg height="800px" width="800px" version="1.1" id="Capa_1" xmlns="http://www.w3.org/2000/svg" xmlns:xlink="http://www.w3.org/1999/xlink" viewBox="0 0 403.79 403.79" xml:space="preserve" fill="#000000">
<g id="SVGRepo_bgCarrier" stroke-width="0"/>
<g id="SVGRepo_tracerCarrier" stroke-linecap="round" stroke-linejoin="round"/>
<g id="SVGRepo_iconCarrier"> <g> <path style="fill:#EF8829;" d="M119.044,196.806c2.745,0.723,5.606,0.335,8.058-1.094c2.452-1.429,4.201-3.727,4.925-6.472 c0.723-2.744,0.335-5.605-1.093-8.057l-13.004-22.306c-7.523,1.337-14.814,2.854-21.819,4.552l16.473,28.471 C114.002,194.333,116.3,196.081,119.044,196.806z"/> <path style="fill:#EF8829;" d="M215.921,195.712c2.453-1.429,4.201-3.727,4.925-6.472c0.722-2.744,0.335-5.605-1.095-8.057 l-17.076-29.307c-0.26-0.001-0.521-0.004-0.783-0.004c-7.924,0-15.774,0.174-23.514,0.515l23.011,39.494 C204.34,196.942,210.859,198.661,215.921,195.712z"/> <path style="fill:#EF8829;" d="M269.435,156.301l20.77,35.573c1.433,2.458,3.731,4.207,6.476,4.931 c2.746,0.723,5.607,0.335,8.059-1.094c5.062-2.949,6.781-9.468,3.831-14.529l-11.697-20.182 C288.081,159.165,278.91,157.595,269.435,156.301z"/> <g> <path style="fill:#FDD44B;" d="M351.867,178.318c1.357,0.629,2.68,1.264,3.967,1.906 C354.546,179.582,353.225,178.947,351.867,178.318z"/> <path style="fill:#FDD44B;" d="M358.122,181.375c0.807,0.42,1.581,0.846,2.357,1.272 C359.702,182.221,358.93,181.795,358.122,181.375z"/> <path style="fill:#FDD44B;" d="M362.23,183.619c0.778,0.442,1.543,0.887,2.288,1.334 C363.772,184.506,363.009,184.061,362.23,183.619z"/> <path style="fill:#FDD44B;" d="M19.801,230.916c0.22,0.24,0.431,0.481,0.671,0.717C20.231,231.397,20.02,231.156,19.801,230.916z"/> <path style="fill:#FDD44B;" d="M341.867,174.047c0.875,0.343,1.726,0.692,2.579,1.041 C343.592,174.74,342.741,174.391,341.867,174.047z"/> <path style="fill:#FDD44B;" d="M346.975,176.143c0.854,0.364,1.705,0.729,2.535,1.098 C348.679,176.871,347.83,176.507,346.975,176.143z"/> <path style="fill:#FDD44B;" d="M374.224,191.618c0.657,0.524,1.289,1.05,1.903,1.579 C375.512,192.669,374.881,192.143,374.224,191.618z"/> <path style="fill:#FDD44B;" d="M382.375,199.53c-1.535-1.881-3.338-3.746-5.405-5.589 C379.035,195.783,380.841,197.649,382.375,199.53z"/> <path style="fill:#FDD44B;" d="M366,185.865c2.628,1.635,5.044,3.3,7.237,4.99C371.042,189.165,368.629,187.5,366,185.865z"/> <path style="fill:#FDD44B;" d="M384.514,202.423c0.392,0.592,0.771,1.184,1.109,1.778 C385.284,203.606,384.906,203.014,384.514,202.423z"/> <path style="fill:#FDD44B;" d="M382.776,200.013c0.459,0.582,0.884,1.166,1.291,1.75 C383.659,201.179,383.235,200.596,382.776,200.013z"/> <path style="fill:#FDD44B;" d="M15.081,217.501c-0.008-0.203-0.018-0.403-0.023-0.608 C15.063,217.097,15.074,217.298,15.081,217.501z"/> <path style="fill:#FDD44B;" d="M336.751,172.109c0.653,0.237,1.277,0.482,1.919,0.722c-0.639-0.239-1.247-0.485-1.897-0.722 c-6.219-2.26-12.806-4.341-19.701-6.243l0.004,0.007C323.961,167.774,330.54,169.852,336.751,172.109z"/> <path style="fill:#FDD44B;" d="M21.42,232.485c0.418,0.363,0.867,0.722,1.341,1.077C22.287,233.207,21.838,232.848,21.42,232.485z "/> <path style="fill:#FDD44B;" d="M27.206,236.31c-0.423-0.219-0.838-0.439-1.231-0.661C26.368,235.871,26.784,236.091,27.206,236.31 z"/> <path style="fill:#FDD44B;" d="M23.803,234.319c0.334,0.226,0.703,0.447,1.063,0.669 C24.506,234.766,24.138,234.545,23.803,234.319z"/> <path style="fill:#FDD44B;" d="M19.133,230.161c-0.201-0.245-0.386-0.494-0.568-0.743 C18.747,229.667,18.933,229.916,19.133,230.161z"/> <path style="fill:#FDD44B;" d="M385.649,204.25c-8.599-6.156-20.152-11.965-34.301-17.107c-6.216-2.259-20.686-6.722-27.585-8.626 c1.544,4.666,1.724,9.686,0.439,14.556c-1.748,6.627-5.973,12.177-11.894,15.629c-3.974,2.316-8.394,3.499-12.875,3.499 c-2.197,0.001-4.406-0.284-6.585-0.858c-6.628-1.748-12.178-5.972-15.628-11.893l-26.453-45.303l8.466,14.499 c-7.988-0.659-22.019-1.247-30.277-1.529l-8.7-14.929l12.486,21.427c3.449,5.922,4.389,12.833,2.641,19.46 c-1.748,6.627-5.973,12.177-11.895,15.629c-3.974,2.316-8.394,3.499-12.875,3.499c-2.197,0.001-4.407-0.284-6.586-0.858 c-6.628-1.748-12.178-5.972-15.627-11.893l-26.827-46.041l9.034,15.505c-7.534,0.669-20.287,2.308-27.5,3.302l0.814,1.397 c3.451,5.924,4.389,12.835,2.641,19.462c-1.748,6.627-5.971,12.177-11.893,15.629c-3.974,2.316-8.395,3.499-12.875,3.499 c-2.197,0-4.407-0.284-6.586-0.858c-6.628-1.748-12.178-5.972-15.628-11.893l-8.903-15.388c-3.096,0.989-6.124,2.015-9.065,3.083 c-33.035,12.007-51.982,27.638-51.982,42.888c0,2.729,0.111,5.292,0.61,7.706c2.828,1.218,6.134,2.382,10.105,3.486 c26.602,7.397,76.426,10.695,161.546,10.695c85.124,0,134.946-3.299,161.549-10.695c23.497-6.534,25.314-14.99,25.314-26.226 C388.756,211.418,387.673,207.819,385.649,204.25z"/> <path style="fill:#FDD44B;" d="M29.863,237.58c-0.478-0.21-0.931-0.424-1.379-0.637C28.932,237.157,29.385,237.37,29.863,237.58z"/> <path style="fill:#FDD44B;" d="M15.199,219.477c-0.02-0.242-0.041-0.484-0.057-0.729 C15.157,218.993,15.178,219.236,15.199,219.477z"/> <path style="fill:#FDD44B;" d="M15.407,221.319c-0.037-0.25-0.068-0.502-0.098-0.755C15.339,220.817,15.37,221.07,15.407,221.319z "/> <path style="fill:#FDD44B;" d="M15.728,223.078c-0.053-0.236-0.094-0.477-0.14-0.715 C15.634,222.602,15.675,222.843,15.728,223.078z"/> <path style="fill:#FDD44B;" d="M16.343,225.191c-0.099-0.281-0.193-0.563-0.278-0.848C16.15,224.628,16.245,224.91,16.343,225.191 z"/> <path style="fill:#FDD44B;" d="M17.12,227.032c-0.118-0.239-0.243-0.477-0.348-0.72C16.877,226.555,17.002,226.793,17.12,227.032z "/> <path style="fill:#FDD44B;" d="M18.025,228.634c-0.16-0.248-0.316-0.496-0.459-0.747 C17.709,228.138,17.866,228.386,18.025,228.634z"/> </g> <path style="fill:#3F2D20;" d="M341.909,157.98c-37.517-13.635-87.242-21.143-140.016-21.143 c-52.772,0-102.497,7.508-140.012,21.143C21.977,172.483,0,192.732,0,214.997c0,21.744,10.523,33.538,36.32,40.711 c27.969,7.776,79.033,11.244,165.573,11.244c172.715,0,201.897-12.973,201.897-51.956 C403.79,192.732,381.813,172.483,341.909,157.98z M363.443,241.223c-26.604,7.397-76.426,10.695-161.55,10.695 c-85.121,0-134.944-3.299-161.546-10.695c-23.497-6.532-25.313-14.99-25.313-26.226c0-15.249,18.947-30.881,51.982-42.887 c4.507-1.638,9.202-3.183,14.067-4.633l18.499,31.972c3.45,5.922,9,10.145,15.628,11.893c2.18,0.574,4.39,0.858,6.586,0.858 c4.48,0,8.901-1.184,12.875-3.499c5.922-3.451,10.145-9.001,11.893-15.628c1.748-6.627,0.811-13.539-2.641-19.462l-10.055-17.245 c8.983-1.237,18.24-2.226,27.707-2.958l26.827,46.041c3.449,5.922,8.999,10.145,15.627,11.893c2.179,0.574,4.389,0.859,6.585,0.858 c4.481,0,8.901-1.184,12.875-3.499c5.922-3.451,10.146-9.001,11.894-15.628s0.808-13.539-2.641-19.46l-12.485-21.427 c10.379,0.355,20.572,1.014,30.511,1.96l26.453,45.303c3.449,5.922,8.999,10.145,15.627,11.893 c2.179,0.574,4.389,0.859,6.585,0.858c4.481,0,8.901-1.184,12.875-3.499c5.922-3.451,10.146-9.001,11.894-15.628 c1.748-6.627,0.808-13.539-2.633-19.446l-4.498-7.761c6.895,1.902,13.482,3.983,19.701,6.243 c33.036,12.007,51.984,27.638,51.984,42.887C388.756,226.233,386.939,234.69,363.443,241.223z M304.74,195.712 c-2.453,1.429-5.313,1.818-8.059,1.094c-2.744-0.724-5.043-2.473-6.476-4.931l-20.77-35.573c9.475,1.294,18.646,2.864,27.44,4.699 l11.697,20.182C311.522,186.244,309.803,192.763,304.74,195.712z M178.379,152.386c7.74-0.341,15.59-0.515,23.514-0.515 c0.262,0,0.523,0.003,0.783,0.004l17.076,29.307c1.429,2.452,1.817,5.314,1.095,8.057c-0.724,2.744-2.473,5.043-4.925,6.472 c-5.062,2.949-11.581,1.23-14.531-3.831L178.379,152.386z M96.111,163.429c7.005-1.698,14.296-3.215,21.819-4.552l13.004,22.306 c1.428,2.452,1.817,5.314,1.093,8.057c-0.724,2.744-2.473,5.043-4.925,6.472c-2.452,1.429-5.313,1.818-8.058,1.094 c-2.745-0.724-5.043-2.473-6.46-4.906L96.111,163.429z"/> </g> </g>
</svg>