<?xml version="1.0" encoding="iso-8859-1"?>
<!-- Uploaded to: SVG Repo, www.svgrepo.com, Generator: SVG Repo Mixer Tools -->
<!DOCTYPE svg PUBLIC "-//W3C//DTD SVG 1.1//EN" "http://www.w3.org/Graphics/SVG/1.1/DTD/svg11.dtd">
<svg version="1.1" id="Capa_1" xmlns="http://www.w3.org/2000/svg" xmlns:xlink="http://www.w3.org/1999/xlink" 
	 viewBox="0 0 337.613 337.613" xml:space="preserve">
<g>
	<path style="fill:#EF8829;" d="M89.436,323.947h168V152.163l-168-31.057V323.947z M238.436,269.426
		c0,4.154-3.367,7.521-7.521,7.521H106.956c-4.154,0-7.521-3.367-7.521-7.521v-62.958c0-4.154,3.367-7.521,7.521-7.521h123.959
		c4.154,0,7.521,3.367,7.521,7.521V269.426z"/>
	<g>
		<path style="fill:#CE593F;" d="M175.625,85.464c0.299,0.136,0.585,0.295,0.862,0.468C176.21,85.758,175.924,85.6,175.625,85.464z"
			/>
		<path style="fill:#CE593F;" d="M177.741,86.898c-0.298-0.289-0.617-0.555-0.959-0.791
			C177.125,86.343,177.443,86.61,177.741,86.898z"/>
		<path style="fill:#CE593F;" d="M174.305,85.014c0.308,0.075,0.608,0.167,0.899,0.279
			C174.912,85.181,174.613,85.089,174.305,85.014z"/>
		<path style="fill:#CE593F;" d="M179.266,89.026c-0.114-0.234-0.234-0.463-0.37-0.683
			C179.032,88.562,179.152,88.792,179.266,89.026z"/>
		<path style="fill:#CE593F;" d="M178.58,87.876c-0.157-0.215-0.328-0.418-0.507-0.615C178.252,87.458,178.423,87.661,178.58,87.876
			z"/>
		<path style="fill:#CE593F;" d="M179.496,89.19c0.346,0.864,0.549,2.025,0.549,3.014c0,4.154-3.367,7.743-7.521,7.743h-9.089v8.044
			c0,1.18,0.617,2.292,0.132,3.287l30.868,5.525V88.947h-14.904C179.522,88.947,179.507,89.216,179.496,89.19z"/>
		<path style="fill:#CE593F;" d="M172.524,84.779c0.47,0,0.927,0.056,1.373,0.139C173.451,84.834,172.995,84.779,172.524,84.779z"/>
	</g>
	<g>
		<path style="fill:#CE593F;" d="M177.741,22.384c-0.298-0.289-0.617-0.554-0.959-0.79
			C177.125,21.829,177.443,22.096,177.741,22.384z"/>
		<path style="fill:#CE593F;" d="M150.464,47.439c-0.172-0.276-0.331-0.562-0.467-0.861
			C150.133,46.877,150.291,47.162,150.464,47.439z"/>
		<path style="fill:#CE593F;" d="M175.625,20.95c0.299,0.136,0.585,0.295,0.862,0.468C176.21,21.244,175.924,21.086,175.625,20.95z"
			/>
		<path style="fill:#CE593F;" d="M151.431,48.694c-0.288-0.298-0.555-0.616-0.79-0.958
			C150.877,48.078,151.142,48.396,151.431,48.694z"/>
		<path style="fill:#CE593F;" d="M149.312,43.477c0,0.471,0.056,0.926,0.138,1.373C149.368,44.404,149.312,43.947,149.312,43.477z"
			/>
		<path style="fill:#CE593F;" d="M149.826,46.158c-0.111-0.292-0.204-0.591-0.279-0.899
			C149.622,45.566,149.714,45.866,149.826,46.158z"/>
		<path style="fill:#CE593F;" d="M174.305,20.5c0.308,0.075,0.608,0.167,0.899,0.279C174.912,20.667,174.613,20.575,174.305,20.5z"
			/>
		<path style="fill:#CE593F;" d="M153.552,50.215c-0.23-0.112-0.456-0.23-0.673-0.365C153.096,49.985,153.321,50.103,153.552,50.215
			z"/>
		<path style="fill:#CE593F;" d="M178.58,23.362c-0.157-0.215-0.328-0.417-0.507-0.615C178.252,22.944,178.423,23.147,178.58,23.362
			z"/>
		<path style="fill:#CE593F;" d="M179.266,24.512c-0.114-0.234-0.234-0.463-0.37-0.682
			C179.032,24.049,179.152,24.278,179.266,24.512z"/>
		<path style="fill:#CE593F;" d="M172.524,20.265c0.47,0,0.927,0.056,1.373,0.138C173.451,20.32,172.995,20.265,172.524,20.265z"/>
		<path style="fill:#CE593F;" d="M179.496,24.933c0.346,0.864,0.549,2.154,0.549,3.142c0,4.154-3.367,7.872-7.521,7.872h-9.089v7.53
			c0,4.154-2.908,7.521-7.062,7.521c-0.987,0-1.035-0.202-1.899-0.547c0.025,0.01,0.961,0.024,0.961,0.034v14.462h39v-40h-14.904
			C179.522,24.947,179.507,24.959,179.496,24.933z"/>
		<path style="fill:#CE593F;" d="M152.407,49.532c-0.213-0.156-0.415-0.326-0.61-0.503
			C151.993,49.206,152.194,49.376,152.407,49.532z"/>
	</g>
	<g>
		<path style="fill:#CE593F;" d="M214.984,111.958c-0.174-0.278-0.334-0.566-0.471-0.868
			C214.65,111.392,214.809,111.679,214.984,111.958z"/>
		<path style="fill:#CE593F;" d="M240.14,85.464c0.299,0.136,0.584,0.294,0.861,0.467C240.724,85.758,240.439,85.6,240.14,85.464z"
			/>
		<path style="fill:#CE593F;" d="M238.82,85.014c0.308,0.075,0.608,0.167,0.9,0.279C239.428,85.181,239.128,85.089,238.82,85.014z"
			/>
		<path style="fill:#CE593F;" d="M242.256,86.898c-0.298-0.289-0.616-0.554-0.958-0.79C241.64,86.343,241.958,86.61,242.256,86.898z
			"/>
		<path style="fill:#CE593F;" d="M213.829,107.991c0,0.471,0.056,0.926,0.139,1.373
			C213.885,108.918,213.829,108.461,213.829,107.991z"/>
		<path style="fill:#CE593F;" d="M215.949,113.209c-0.289-0.299-0.556-0.617-0.793-0.961
			C215.393,112.591,215.659,112.911,215.949,113.209z"/>
		<path style="fill:#CE593F;" d="M214.343,110.672c-0.112-0.292-0.205-0.593-0.28-0.902
			C214.139,110.079,214.231,110.38,214.343,110.672z"/>
		<path style="fill:#CE593F;" d="M243.095,87.875c-0.157-0.215-0.328-0.417-0.506-0.614
			C242.767,87.458,242.938,87.66,243.095,87.875z"/>
		<path style="fill:#CE593F;" d="M218.071,114.731c-0.232-0.113-0.46-0.232-0.678-0.368
			C217.612,114.498,217.839,114.617,218.071,114.731z"/>
		<path style="fill:#CE593F;" d="M243.78,89.023c-0.113-0.233-0.233-0.46-0.368-0.679C243.547,88.562,243.667,88.791,243.78,89.023z
			"/>
		<path style="fill:#CE593F;" d="M216.926,114.047c-0.216-0.158-0.42-0.33-0.617-0.51
			C216.506,113.717,216.709,113.889,216.926,114.047z"/>
		<path style="fill:#CE593F;" d="M237.039,84.779c0.47,0,0.927,0.056,1.373,0.139C237.966,84.834,237.51,84.779,237.039,84.779z"/>
		<path style="fill:#CE593F;" d="M244.012,89.191c0.346,0.864,0.548,2.024,0.548,3.013c0,4.154-3.367,7.743-7.521,7.743h-7.603
			v8.044c0,4.154-3.649,7.52-7.804,7.52c-0.988,0-2.165-0.202-3.029-0.548c0.024,0.01-0.167,0.024-0.167,0.034v6.426l39,7.271
			V88.947h-13.389C244.037,88.947,244.022,89.216,244.012,89.191z"/>
	</g>
	<g>
		<path style="fill:#CE593F;" d="M242.256,22.384c-0.298-0.289-0.616-0.554-0.958-0.79C241.64,21.829,241.958,22.096,242.256,22.384
			z"/>
		<path style="fill:#CE593F;" d="M213.829,43.477c0,0.471,0.056,0.926,0.139,1.373C213.885,44.404,213.829,43.947,213.829,43.477z"
			/>
		<path style="fill:#CE593F;" d="M240.14,20.95c0.299,0.136,0.584,0.295,0.861,0.467C240.724,21.244,240.439,21.086,240.14,20.95z"
			/>
		<path style="fill:#CE593F;" d="M214.983,47.443c-0.174-0.278-0.333-0.565-0.47-0.866C214.65,46.878,214.809,47.165,214.983,47.443
			z"/>
		<path style="fill:#CE593F;" d="M215.948,48.694c-0.288-0.298-0.556-0.617-0.792-0.96
			C215.393,48.077,215.659,48.396,215.948,48.694z"/>
		<path style="fill:#CE593F;" d="M214.343,46.158c-0.112-0.292-0.204-0.593-0.279-0.901
			C214.139,45.566,214.231,45.866,214.343,46.158z"/>
		<path style="fill:#CE593F;" d="M237.039,20.265c0.47,0,0.927,0.056,1.373,0.138C237.966,20.32,237.51,20.265,237.039,20.265z"/>
		<path style="fill:#CE593F;" d="M243.095,23.361c-0.157-0.215-0.328-0.417-0.506-0.613
			C242.767,22.944,242.938,23.146,243.095,23.361z"/>
		<path style="fill:#CE593F;" d="M238.82,20.5c0.308,0.075,0.608,0.168,0.9,0.279C239.428,20.667,239.128,20.575,238.82,20.5z"/>
		<path style="fill:#CE593F;" d="M218.071,50.217c-0.232-0.113-0.46-0.232-0.677-0.368
			C217.612,49.984,217.839,50.104,218.071,50.217z"/>
		<path style="fill:#CE593F;" d="M243.78,24.509c-0.113-0.233-0.233-0.46-0.368-0.679C243.547,24.049,243.667,24.277,243.78,24.509z
			"/>
		<path style="fill:#CE593F;" d="M244.012,24.934c0.346,0.864,0.548,2.153,0.548,3.141c0,4.154-3.367,7.872-7.521,7.872h-7.603v7.53
			c0,4.154-3.649,7.521-7.804,7.521c-0.988,0-2.165-0.202-3.029-0.548c0.024,0.01-0.167,0.024-0.167,0.034v14.463h39v-40h-13.389
			C244.037,24.947,244.022,24.959,244.012,24.934z"/>
		<path style="fill:#CE593F;" d="M216.924,49.533c-0.215-0.157-0.418-0.329-0.615-0.507
			C216.507,49.204,216.709,49.375,216.924,49.533z"/>
	</g>
	<g>
		<path style="fill:#CE593F;" d="M85.954,47.443c-0.174-0.278-0.333-0.565-0.47-0.866C85.621,46.878,85.78,47.165,85.954,47.443z"/>
		<path style="fill:#CE593F;" d="M85.314,46.158c-0.112-0.292-0.204-0.593-0.279-0.901C85.11,45.566,85.202,45.866,85.314,46.158z"
			/>
		<path style="fill:#CE593F;" d="M113.23,22.385c-0.299-0.289-0.618-0.556-0.962-0.793C112.612,21.828,112.931,22.096,113.23,22.385
			z"/>
		<path style="fill:#CE593F;" d="M111.11,20.949c0.302,0.137,0.591,0.297,0.87,0.472C111.701,21.246,111.413,21.087,111.11,20.949z"
			/>
		<path style="fill:#CE593F;" d="M84.8,43.477c0,0.471,0.056,0.926,0.139,1.373C84.856,44.404,84.8,43.947,84.8,43.477z"/>
		<path style="fill:#CE593F;" d="M86.919,48.694c-0.288-0.298-0.556-0.616-0.792-0.959C86.364,48.077,86.63,48.396,86.919,48.694z"
			/>
		<path style="fill:#CE593F;" d="M109.79,20.499c0.309,0.076,0.611,0.168,0.903,0.28C110.401,20.667,110.1,20.575,109.79,20.499z"/>
		<path style="fill:#CE593F;" d="M114.747,24.5c-0.112-0.229-0.229-0.453-0.363-0.668C114.518,24.047,114.635,24.271,114.747,24.5z"
			/>
		<path style="fill:#CE593F;" d="M114.067,23.361c-0.158-0.216-0.33-0.419-0.509-0.617
			C113.737,22.941,113.909,23.146,114.067,23.361z"/>
		<path style="fill:#CE593F;" d="M87.895,49.532c-0.214-0.157-0.417-0.327-0.613-0.505C87.479,49.205,87.681,49.375,87.895,49.532z"
			/>
		<path style="fill:#CE593F;" d="M89.041,50.216c-0.231-0.112-0.458-0.231-0.675-0.366C88.583,49.985,88.81,50.103,89.041,50.216z"
			/>
		<path style="fill:#CE593F;" d="M108.011,20.265c0.471,0,0.927,0.056,1.374,0.138C108.939,20.32,108.483,20.265,108.011,20.265z"/>
		<path style="fill:#CE593F;" d="M114.986,24.94c0.345,0.863,0.547,2.149,0.547,3.135c0,4.154-3.367,7.872-7.521,7.872h-8.576v7.53
			c0,4.154-3.164,7.521-7.318,7.521c-0.988,0-1.907-0.202-2.771-0.548c0.024,0.01,0.089,0.024,0.089,0.034v14.463h39v-40h-13.418
			C115.009,24.947,114.995,24.963,114.986,24.94z"/>
	</g>
	<g>
		<path style="fill:#CE593F;" d="M111.11,85.462c0.302,0.137,0.591,0.298,0.87,0.472C111.701,85.759,111.413,85.6,111.11,85.462z"/>
		<path style="fill:#CE593F;" d="M113.23,86.899c-0.299-0.289-0.618-0.556-0.962-0.793C112.612,86.342,112.931,86.61,113.23,86.899z
			"/>
		<path style="fill:#CE593F;" d="M109.79,85.013c0.309,0.076,0.611,0.169,0.903,0.28C110.401,85.181,110.1,85.089,109.79,85.013z"/>
		<path style="fill:#CE593F;" d="M114.067,87.875c-0.158-0.216-0.33-0.419-0.509-0.617
			C113.737,87.455,113.909,87.659,114.067,87.875z"/>
		<path style="fill:#CE593F;" d="M114.747,89.014c-0.112-0.229-0.229-0.453-0.363-0.668
			C114.518,88.561,114.635,88.785,114.747,89.014z"/>
		<path style="fill:#CE593F;" d="M114.986,89.196c0.345,0.863,0.547,2.021,0.547,3.007c0,4.154-3.367,7.743-7.521,7.743h-6.575
			l26.999,4.964V88.947h-13.418C115.009,88.947,114.995,89.22,114.986,89.196z"/>
		<path style="fill:#CE593F;" d="M108.011,84.779c0.471,0,0.927,0.056,1.374,0.139C108.939,84.834,108.483,84.779,108.011,84.779z"
			/>
	</g>
	<rect x="125.436" y="225.947" style="fill:#FDD44B;" width="99" height="39"/>
	<path style="fill:#3F2D20;" d="M92.321,50.998c4.154,0,7.521-3.367,7.521-7.521v-8.171h8.17c4.154,0,7.521-3.367,7.521-7.521
		c0-4.154-3.367-7.521-7.521-7.521H92.321c-4.154,0-7.521,3.367-7.521,7.521v15.692C84.8,47.631,88.167,50.998,92.321,50.998z"/>
	<path style="fill:#3F2D20;" d="M156.832,50.998c4.154,0,7.521-3.367,7.521-7.521v-8.171h8.171c4.154,0,7.521-3.367,7.521-7.521
		c0-4.154-3.367-7.521-7.521-7.521h-15.692c-4.154,0-7.521,3.367-7.521,7.521v15.692C149.312,47.631,152.679,50.998,156.832,50.998z
		"/>
	<path style="fill:#3F2D20;" d="M221.349,50.998c4.154,0,7.521-3.367,7.521-7.521v-8.171h8.169c4.154,0,7.521-3.367,7.521-7.521
		c0-4.154-3.367-7.521-7.521-7.521h-15.69c-4.154,0-7.521,3.367-7.521,7.521v15.692C213.829,47.631,217.195,50.998,221.349,50.998z"
		/>
	<path style="fill:#3F2D20;" d="M237.039,84.779h-15.69c-4.154,0-7.521,3.367-7.521,7.521v15.692c0,4.154,3.367,7.521,7.521,7.521
		c4.154,0,7.521-3.367,7.521-7.521V99.82h8.169c4.154,0,7.521-3.367,7.521-7.521C244.56,88.145,241.193,84.779,237.039,84.779z"/>
	<path style="fill:#3F2D20;" d="M106.348,280.571h124.956c4.154,0,7.521-3.367,7.521-7.521v-65.172c0-4.154-3.367-7.521-7.521-7.521
		H106.348c-4.154,0-7.521,3.367-7.521,7.521v65.172C98.827,277.204,102.194,280.571,106.348,280.571z M113.868,215.399h109.915
		v50.13H113.868V215.399z"/>
	<path style="fill:#3F2D20;" d="M265.598,0H72.054c-4.154,0-7.521,3.367-7.521,7.52v322.572c0,4.154,3.332,7.521,7.485,7.521
		h193.541c4.154,0,7.521-3.367,7.521-7.521V7.52C273.08,3.367,269.751,0,265.598,0z M258.077,64.514h-49.474V15.041h49.474V64.514z
		 M208.603,79.555h49.474v49.139l-49.474-9.12V79.555z M172.524,84.779h-15.692c-4.154,0-7.521,3.367-7.521,7.521v15.692
		c0,0.223,0.014,0.443,0.033,0.66l-5.256-0.969V79.555h49.472v37.247l-29.972-5.525c0.485-0.994,0.764-2.106,0.764-3.286V99.82
		h8.171c4.154,0,7.521-3.367,7.521-7.521C180.045,88.145,176.678,84.779,172.524,84.779z M193.562,64.514H144.09V15.041h49.472
		V64.514z M129.048,64.514H79.574V15.041h49.474V64.514z M79.574,79.555h49.474v25.355l-27.611-5.09h6.575
		c4.154,0,7.521-3.367,7.521-7.521c0-4.154-3.367-7.521-7.521-7.521H92.321c-4.154,0-7.521,3.367-7.521,7.521v4.454l-5.225-0.963
		V79.555z M258.039,322.571H79.539V111.079l178.499,32.904V322.571z"/>
</g>
</svg>