<?xml version="1.0" encoding="iso-8859-1"?>
<!-- Uploaded to: SVG Repo, www.svgrepo.com, Generator: SVG Repo Mixer Tools -->
<!DOCTYPE svg PUBLIC "-//W3C//DTD SVG 1.1//EN" "http://www.w3.org/Graphics/SVG/1.1/DTD/svg11.dtd">
<svg height="800px" width="800px" version="1.1" id="Capa_1" xmlns="http://www.w3.org/2000/svg" xmlns:xlink="http://www.w3.org/1999/xlink" 
	 viewBox="0 0 344.144 344.144" xml:space="preserve">
<g>
	<polygon style="fill:#EF8829;" points="32.056,312.308 32.318,317.877 307.705,303.434 	"/>
	<polygon style="fill:#EF8829;" points="30.993,268.849 30.731,274.417 306.73,283.311 	"/>
	<g>
		<path style="fill:#FDD44B;" d="M261.419,61.356c0.644,0.263,1.283,0.514,1.923,0.748
			C262.703,61.871,262.061,61.617,261.419,61.356z"/>
		<path style="fill:#FDD44B;" d="M285.649,101.34c-2.386-3.122-5.092-7.039-6.605-11.142c-1.537-4.162-1.707-8.679-1.874-12.863
			c-0.102-2.559-0.212-5.258-0.67-7.285c0.229,1.02,0.372,2.135,0.469,3.369c-4.143-1.365-8.818-2.944-12.707-6.002
			c-2.758-2.168-4.831-5.002-6.61-7.806c0.86,0.472,1.737,0.884,2.619,1.274c-2.094-0.924-4.157-2.037-6.032-3.512
			c-3.77-2.964-6.266-7.15-8.468-10.842c0.326,0.547,0.663,1.106,1.004,1.668c-1.819-0.084-4.051,0.101-6.242,0.286
			c-4.574,0.385-9.757,0.823-14.776-0.713c-4.794-1.469-8.705-4.678-12.156-7.508c-2.909-2.385-5.916-4.852-8.239-5.188
			c-2.027-0.304-5.464,1.134-8.789,2.515c-4.293,1.783-9.156,3.803-14.478,3.803c-5.321,0-10.185-2.02-14.476-3.803
			c-3.325-1.382-6.76-2.815-8.792-2.515c-2.322,0.337-5.329,2.803-8.238,5.189c-3.451,2.831-7.364,6.039-12.155,7.507
			c-5.022,1.537-10.207,1.1-14.779,0.713c-3.604-0.304-7.329-0.618-9.12,0.285c-2.142,1.082-4.174,4.489-6.139,7.784
			c-2.202,3.691-4.698,7.875-8.465,10.838c-3.931,3.089-8.66,4.645-12.834,6.019c-3.343,1.101-7.135,2.348-8.337,3.896
			c-1.445,1.863-1.605,5.929-1.762,9.861c-0.166,4.184-0.338,9.268-1.872,13.428c-0.23,0.624-0.495-0.412-0.775,2.588h212.125
			C286.201,100.185,285.925,101.701,285.649,101.34z"/>
		<path style="fill:#FDD44B;" d="M264.43,62.498c0.894,0.312,1.78,0.609,2.64,0.893C266.212,63.108,265.322,62.807,264.43,62.498z"
			/>
		<path style="fill:#FDD44B;" d="M275.98,68.31c-0.166-0.382-0.349-0.735-0.571-1.021C275.631,67.575,275.815,67.927,275.98,68.31z"
			/>
		<path style="fill:#FDD44B;" d="M276.431,69.685c-0.094-0.376-0.203-0.727-0.326-1.054
			C276.228,68.959,276.338,69.308,276.431,69.685z"/>
	</g>
	<g>
		<path style="fill:#84BD93;" d="M126.422,222.185c0.411,0-0.441,0,2.559,0v5h103v-4.702
			C231.981,222.535,154.252,222.185,126.422,222.185z"/>
		<path style="fill:#84BD93;" d="M116.816,222.185c-0.002,0-0.005,0-0.007,0C116.811,222.185,116.813,222.185,116.816,222.185z"/>
		<path style="fill:#84BD93;" d="M125.685,222.185c-0.274,0-0.541,0-0.805,0C125.143,222.185,125.41,222.185,125.685,222.185z"/>
	</g>
	<path style="fill:#84BD93;" d="M301.662,121.656c0.166-1.639,0.305-3.289,0.405-4.953
		C301.966,118.367,301.829,120.017,301.662,121.656z"/>
	<path style="fill:#84BD93;" d="M52.1,126.185c1.525,26,10.642,47.768,24.476,64.105c12.534,10.596,27.618,16.895,43.847,16.895
		h103.298c38.543,0,70.683-34,77.311-81H52.1z"/>
	<path style="fill:#84BD93;" d="M301.06,126.549c0.189-1.324,0.349-2.66,0.495-4.001
		C301.408,123.889,301.249,125.226,301.06,126.549z"/>
	<path style="fill:#3F2D20;" d="M101.511,220.261v13.541c0,4.152,3.365,7.517,7.517,7.517h126.088c4.152,0,7.517-3.365,7.517-7.517
		v-13.541c42.58-10.625,74.695-56.391,74.695-111.074c0-4.152-3.365-7.517-7.517-7.517h-5.816c-1.599-3.925-4.17-7.298-6.403-10.218
		c-1.911-2.499-3.715-4.86-4.444-6.836c-0.713-1.93-0.83-4.911-0.955-8.065c-0.227-5.707-0.509-12.81-4.906-18.477
		c-4.017-5.178-10.127-7.188-15.516-8.963c-3.142-1.035-6.391-2.103-8.239-3.557c-1.579-1.241-3.242-4.029-4.85-6.724
		c-2.923-4.899-6.236-10.452-12.273-13.5c-5.593-2.823-11.739-2.303-17.164-1.846c-3.375,0.285-6.865,0.578-9.11-0.107
		c-1.955-0.599-4.532-2.713-7.025-4.757c-4.29-3.519-9.153-7.507-15.619-8.443c-6.123-0.879-11.747,1.45-16.708,3.51
		c-3.141,1.305-6.387,2.653-8.711,2.653c-2.322,0-5.569-1.349-8.709-2.653c-4.962-2.062-10.586-4.399-16.712-3.511
		c-6.466,0.937-11.328,4.924-15.618,8.443c-2.492,2.044-5.07,4.158-7.024,4.757c-2.246,0.687-5.738,0.395-9.113,0.107
		c-5.423-0.458-11.571-0.978-17.16,1.846c-6.04,3.049-9.353,8.603-12.276,13.502c-1.607,2.695-3.269,5.482-4.846,6.721
		c-1.849,1.454-5.098,2.522-8.239,3.557c-5.39,1.774-11.5,3.784-15.516,8.962c-4.398,5.667-4.68,12.771-4.906,18.48
		c-0.126,3.155-0.244,6.134-0.956,8.064c-0.729,1.977-2.534,4.338-4.446,6.838c-2.233,2.92-4.8,6.294-6.399,10.217h-5.82
		c-4.151,0-7.517,3.365-7.517,7.517C26.815,163.87,58.93,209.636,101.511,220.261z M58.495,100.583
		c2.388-3.123,5.095-6.663,6.608-10.767c1.534-4.16,1.706-8.486,1.872-12.67c0.157-3.933,0.317-7.999,1.762-9.861
		c1.202-1.548,4.994-2.795,8.337-3.896c4.174-1.373,8.903-2.93,12.834-6.019c3.767-2.964,6.262-7.147,8.465-10.838
		c1.965-3.296,3.997-6.703,6.139-7.784c1.791-0.904,5.517-0.588,9.12-0.285c4.572,0.386,9.756,0.824,14.779-0.714
		c4.791-1.467,8.704-4.676,12.156-7.506c2.909-2.385,5.916-4.852,8.238-5.189c2.032-0.299,5.466,1.133,8.791,2.516
		c4.291,1.782,9.156,3.803,14.476,3.803c5.322,0,10.185-2.02,14.478-3.804c3.324-1.38,6.761-2.819,8.789-2.515
		c2.323,0.336,5.33,2.802,8.238,5.188c3.451,2.831,7.362,6.039,12.157,7.508c5.019,1.536,10.202,1.097,14.776,0.713
		c3.604-0.306,7.331-0.62,9.122,0.286c2.142,1.081,4.174,4.487,6.139,7.781c2.202,3.692,4.698,7.876,8.468,10.84
		c3.927,3.088,8.658,4.645,12.83,6.02c3.346,1.101,7.137,2.349,8.34,3.898c1.445,1.861,1.605,5.926,1.762,9.858
		c0.167,4.184,0.337,8.511,1.873,12.673c1.513,4.102,4.219,7.64,6.605,10.763c0.276,0.361,0.552,0.725,0.827,1.087H57.668
		C57.942,101.307,58.219,100.944,58.495,100.583z M302.067,116.704c-3.077,50.741-37.041,90.849-78.346,90.849H120.423
		c-41.305,0-75.268-40.109-78.346-90.849H302.067z M227.599,226.284H116.545v-3.802c1.286,0.064,109.768,0.064,111.054,0V226.284z"
		/>
	<path style="fill:#3F2D20;" d="M337.022,266.57L9.364,249.386c-1.99-0.115-3.955,0.59-5.438,1.933
		c-1.483,1.343-2.37,3.221-2.463,5.22l-1.145,24.308c-0.094,2.01,0.62,3.975,1.987,5.454c1.366,1.479,3.267,2.348,5.28,2.413
		l94.7,3.052l-95.009,3.059c-2.011,0.065-3.913,0.934-5.279,2.413c-1.366,1.478-2.081,3.444-1.987,5.454l1.145,24.308
		c0.094,1.999,0.981,3.877,2.464,5.22c1.385,1.254,3.184,1.944,5.044,1.944c0.131,0,0.263-0.004,0.394-0.011l327.657-17.184
		c4.082-0.213,7.244-3.65,7.12-7.735l0.303-34.795C344.334,270.303,341.154,266.787,337.022,266.57z M328.494,299.524l0.086,2.815
		L15.816,318.743l-0.431-9.138L328.494,299.524z M328.626,284.017L15.694,273.933l0.431-9.138l312.635,16.397L328.626,284.017z"/>
</g>
</svg>